# xmcd
#
# Track frame offsets: 
#        150
#        16227
#        33398
#        41234
#        50380
#        59456
#        71541
#        73143
#        89763
#        100769
#        116449
#        138691
#        149070
#        167042
#        178584
#        189764
#        208822
#        228173
#        243198
#
# Disc length: 3423 seconds
#
# Revision: 0
# Processed by: cddbd v1.5.2PL0 Copyright (c) Steve Scherf et al.
# Submitted via: ExactAudioCopy v0.99pb5
#
DISCID=170d5d13
DTITLE=Janis Joplin  - Blow My Blues Away CD 5
DYEAR=1900
DGENRE=
TTITLE0=Black Mountain
TTITLE1=Careless Love
TTITLE2=Gospel Ship
TTITLE3=Stealin'
TTITLE4=Leavin' This Mornin'
TTITLE5=Daddy Daddy Daddy
TTITLE6=Talking
TTITLE7=Careless Love
TTITLE8=Bourgeoise Blues
TTITLE9=Black Mountain
TTITLE10=Honky Tonk Angel
TTITLE11=Empty Pillow
TTITLE12=Red Mountain Burgundy
TTITLE13=Unknown Title
TTITLE14=Mary Jane
TTITLE15=Black Mountain
TTITLE16=Columbus Stockade
TTITLE17=Whinin' Boy Blues
TTITLE18=Trouble in Mind
EXTD=
EXTT0=
EXTT1=
EXTT2=
EXTT3=
EXTT4=
EXTT5=
EXTT6=
EXTT7=
EXTT8=
EXTT9=
EXTT10=
EXTT11=
EXTT12=
EXTT13=
EXTT14=
EXTT15=
EXTT16=
EXTT17=
EXTT18=
PLAYORDER=
